HIERARCHY
ROOT Hips
{
  OFFSET 0.0000 0.0000 0.0000
  CHANNELS 6 Xposition Yposition Zposition Zrotation Xrotation Yrotation
  JOINT LeftHip
  {
    OFFSET 5.5000 -0.0000 0.0000
    CHANNELS 3 Zrotation Xrotation Yrotation
    JOINT LeftKnee
    {
      OFFSET -0.0000 -16.5000 0.0000
      CHANNELS 3 Zrotation Xrotation Yrotation
      JOINT LeftAnkle
      {
        OFFSET 0.0000 -17.0000 -0.0000
        CHANNELS 3 Zrotation Xrotation Yrotation
        End Site
        {
            OFFSET 0.0000 -4.0000 -2.0000
        }
      }
    }
  }
  JOINT RightHip
  {
    OFFSET -5.5000 0.0000 -0.0000
    CHANNELS 3 Zrotation Xrotation Yrotation
    JOINT RightKnee
    {
      OFFSET 0.0000 -16.5000 0.0000
      CHANNELS 3 Zrotation Xrotation Yrotation
      JOINT RightAnkle
      {
        OFFSET 0.0000 -17.0000 0.0000
        CHANNELS 3 Zrotation Xrotation Yrotation
        End Site
        {
            OFFSET 0.0000 -4.0000 -2.0000
        }
      }
    }
  }
  JOINT Chest
  {
    OFFSET 0.0000 3.0000 -1.0000
    CHANNELS 3 Zrotation Xrotation Yrotation
    JOINT LeftCollar
    {
      OFFSET 0.0000 18.0000 1.0000
      CHANNELS 3 Zrotation Xrotation Yrotation
      JOINT LeftShoulder
      {
        OFFSET 6.5000 0.0000 -0.0000
        CHANNELS 3 Zrotation Xrotation Yrotation
        JOINT LeftElbow
        {
          OFFSET -0.0000 -11.0000 0.0000
          CHANNELS 3 Zrotation Xrotation Yrotation
          JOINT LeftWrist
          {
            OFFSET 0.0000 -10.5000 0.0000
            CHANNELS 3 Zrotation Xrotation Yrotation
            End Site
            {
                OFFSET 0.0000 -6.0000 0.0000
            }
          }
        }
      }
    }
    JOINT RightCollar
    {
      OFFSET 0.0000 18.0000 1.0000
      CHANNELS 3 Zrotation Xrotation Yrotation
      JOINT RightShoulder
      {
        OFFSET -6.5000 -0.0000 0.0000
        CHANNELS 3 Zrotation Xrotation Yrotation
        JOINT RightElbow
        {
          OFFSET 0.0000 -11.0000 0.0000
          CHANNELS 3 Zrotation Xrotation Yrotation
          JOINT RightWrist
          {
            OFFSET 0.0000 -10.5000 0.0000
            CHANNELS 3 Zrotation Xrotation Yrotation
            End Site
            {
                OFFSET -0.0000 -6.0000 0.0000
            }
          }
        }
      }
    }
    JOINT Neck
    {
      OFFSET 0.0000 18.0000 1.0000
      CHANNELS 3 Zrotation Xrotation Yrotation
      JOINT Head
      {
        OFFSET 0.0000 3.0000 0.0000
        CHANNELS 3 Zrotation Xrotation Yrotation
        End Site
        {
            OFFSET 0.0000 7.0000 0.0000
        }
      }
    }
  }
}
MOTION
Frames:	14
Frame Time:	0.041667
95.3079 34.8958 899.2196 3.16 -10.59 -14.36 -5.62 -19.10 3.10 5.00 28.90 0.00 7.13 -1.33 -0.15 -6.92 -3.26 -4.77 -5.00 57.52 0.00 2.39 18.17 13.88 -3.03 4.82 2.96 -3.12 0.00 0.00 7.58 8.38 9.53 -4.00 -11.38 0.00 -3.47 16.05 -24.85 -3.12 0.00 0.00 -7.36 -2.72 -0.78 4.00 -25.96 0.00 4.06 7.14 15.84 0.70 -1.69 0.00 -2.63 7.21 -3.83 
95.6185 35.2385 901.5480 3.59 -10.98 -12.43 -7.72 -15.44 2.47 5.00 29.47 0.00 7.40 -4.29 -0.32 -8.08 -9.04 -6.07 -5.00 65.81 0.00 2.64 10.18 13.08 -4.53 6.15 0.27 -2.16 -0.16 -0.01 7.96 6.59 8.64 -4.00 -12.55 0.00 -3.69 15.99 -24.32 -2.16 -0.16 -0.01 -7.07 -1.70 -0.74 4.00 -24.41 0.00 6.60 8.54 17.03 0.64 -1.96 0.00 -3.26 7.82 -4.30 
95.8656 35.6834 902.8976 3.06 -9.71 -10.68 -8.53 -13.23 0.09 5.00 27.54 0.00 7.62 -5.91 0.62 -7.03 -16.37 -7.32 -5.00 69.01 0.00 3.37 6.31 12.24 -4.89 5.17 -1.82 -0.85 -0.32 -0.00 8.44 4.57 7.53 -4.00 -13.91 0.00 -4.18 16.19 -23.66 -0.85 -0.32 -0.00 -7.26 0.04 -0.70 4.00 -23.73 0.00 7.76 9.66 17.47 0.59 -2.15 0.00 -3.54 8.62 -4.22 
96.1284 36.1598 904.1697 2.39 -8.93 -8.93 -8.92 -9.91 -1.87 5.00 24.18 0.00 7.31 -6.87 0.76 -5.23 -22.18 -7.23 -5.00 67.76 0.00 3.46 2.51 11.32 -4.74 4.77 -3.99 0.34 -0.16 0.00 8.40 2.54 6.74 -4.00 -16.21 0.00 -4.18 16.04 -22.80 0.34 -0.16 0.00 -7.47 2.06 -0.65 4.00 -22.57 0.00 8.34 9.66 17.47 0.31 -2.39 0.00 -3.06 10.05 -4.83 
96.4901 36.5087 905.6811 2.08 -8.28 -6.95 -9.55 -6.35 -3.26 5.00 21.03 0.00 6.92 -7.89 -0.15 -3.76 -26.19 -6.78 -5.00 62.28 0.00 4.05 -0.86 10.60 -4.90 4.78 -5.85 2.27 -0.32 0.01 8.80 0.66 5.67 -4.00 -18.40 0.00 -4.31 15.64 -21.31 2.27 -0.32 0.01 -7.64 3.58 -0.61 4.00 -20.81 0.00 8.70 9.01 17.46 -0.09 -2.43 0.00 -2.20 10.65 -5.22 
96.7861 36.7371 907.2894 2.08 -7.41 -5.21 -10.11 -2.98 -4.08 5.00 18.08 0.00 6.61 -9.31 -1.42 -2.50 -28.61 -5.09 -5.00 52.38 0.00 5.19 -2.70 8.36 -5.31 4.28 -7.56 3.25 -0.32 0.02 9.16 -1.51 4.62 -4.00 -20.74 0.00 -4.57 15.39 -19.67 3.25 -0.32 0.02 -7.94 4.59 -0.56 4.00 -18.81 0.00 9.74 9.16 17.46 -0.49 -2.16 0.00 -1.12 9.78 -5.36 
96.9948 36.7996 909.0718 2.48 -6.01 -4.11 -10.69 -0.18 -3.93 5.00 15.63 0.00 6.02 -10.99 -3.12 -1.16 -29.49 -2.85 -5.00 39.00 0.00 4.08 -2.26 5.68 -5.97 3.55 -8.94 4.12 -0.32 0.02 9.70 -3.71 3.54 -4.00 -22.57 0.00 -5.12 15.16 -18.73 4.12 -0.32 0.02 -7.79 5.10 -0.98 4.00 -17.19 0.00 10.45 9.53 17.27 -0.75 -1.94 0.00 -0.22 8.75 -5.49 
97.0358 36.6330 911.1928 3.36 -4.01 -3.54 -11.53 2.06 -3.64 5.00 14.12 0.00 5.38 -12.96 -4.51 -0.63 -29.18 -1.37 -5.00 22.83 0.00 2.51 1.98 2.46 -6.70 2.41 -9.98 4.59 -0.32 0.03 10.09 -5.78 2.68 -4.00 -24.17 0.00 -5.04 15.15 -18.49 4.59 -0.32 0.03 -7.65 5.49 -1.40 4.00 -16.01 0.00 10.95 9.92 17.27 -0.88 -1.66 0.00 0.16 7.66 -5.53 
97.0539 36.3178 913.1438 4.33 -2.65 -3.45 -12.42 3.98 -3.32 5.00 13.85 0.00 3.59 -14.70 -5.61 -0.80 -28.54 -1.61 -5.00 9.33 0.00 0.74 2.23 0.50 -7.84 0.99 -10.61 4.74 -0.49 0.04 10.52 -7.25 1.59 -4.00 -25.06 0.00 -5.44 15.64 -18.70 4.74 -0.49 0.04 -7.29 5.93 -1.86 4.00 -15.75 0.00 11.54 10.52 17.27 -0.83 -1.34 0.00 -0.36 6.95 -5.46 
96.8998 36.1130 914.3925 5.14 -2.11 -3.11 -12.88 5.32 -3.35 5.00 14.02 0.00 2.42 -15.27 -6.42 -1.18 -28.89 -5.82 -5.00 4.65 0.00 0.69 -1.58 1.90 -8.96 0.66 -11.35 4.60 -0.32 0.03 10.46 -7.80 -0.03 -4.00 -25.79 0.00 -6.73 16.55 -19.57 4.60 -0.32 0.03 -7.34 6.32 -2.50 4.00 -15.78 0.00 11.93 10.65 17.27 -0.78 -1.04 0.00 -1.07 5.88 -6.85 
96.6380 35.8361 916.1010 5.49 -2.04 -1.58 -12.76 6.11 -3.94 5.00 17.30 0.00 1.51 -14.80 -7.15 -1.06 -31.47 -6.74 -5.00 10.74 0.00 4.69 -2.39 1.68 -10.01 0.04 -13.30 5.41 -0.32 0.03 10.04 -7.74 -0.80 -4.00 -25.44 0.00 -6.83 16.67 -21.21 5.41 -0.32 0.03 -7.37 6.51 -2.99 4.00 -15.40 0.00 12.08 10.70 17.26 -0.78 -0.72 0.00 -1.42 4.85 -7.34 
95.9319 35.5752 917.9167 5.17 -3.19 0.55 -11.11 6.83 -4.00 5.00 22.52 0.00 1.59 -11.05 -9.28 0.08 -32.08 -3.26 -5.00 16.30 0.00 2.29 3.09 -1.07 -10.79 0.48 -15.74 5.97 -0.17 0.02 8.79 -6.45 -1.04 -4.00 -24.41 0.00 -6.97 16.86 -22.02 5.97 -0.17 0.02 -7.28 7.51 -4.42 4.00 -15.44 0.00 12.35 10.94 17.27 -0.83 -0.73 0.00 -1.44 4.56 -7.17 
95.2602 34.7820 920.5217 3.62 -6.19 1.39 -7.46 7.27 0.53 5.00 32.24 0.00 3.89 -1.68 -14.30 2.04 -31.00 0.52 -5.00 23.00 0.00 6.26 5.60 -6.38 -9.60 2.28 -16.03 6.94 0.02 -0.00 7.49 -4.77 -1.46 -4.00 -22.00 0.00 -6.43 17.59 -23.21 6.94 0.02 -0.00 -7.13 7.98 -6.05 4.00 -14.31 0.00 12.38 10.76 17.26 -0.78 -0.72 0.00 -1.66 4.37 -6.77 
94.8038 34.1533 922.7510 1.05 -9.43 0.62 -1.67 4.74 2.36 5.00 46.93 0.00 8.41 9.31 -14.15 4.46 -27.33 2.40 -5.00 28.77 0.00 5.50 4.36 -7.55 -7.08 4.75 -13.74 6.75 0.64 -0.08 6.33 -3.99 -1.56 -4.00 -19.35 0.00 -5.34 18.31 -24.87 6.75 0.64 -0.08 -7.29 7.55 -6.02 4.00 -13.17 0.00 12.06 10.76 17.25 -0.78 -0.73 0.00 -1.56 3.89 -4.92 
